<svg xmlns="http://www.w3.org/2000/svg" width="2500" height="2500" viewBox="0 0 2500 2500">
  <metadata><?xpacket begin="﻿" id="W5M0MpCehiHzreSzNTczkc9d"?>
<x:xmpmeta xmlns:x="adobe:ns:meta/" x:xmptk="Adobe XMP Core 5.6-c138 79.159824, 2016/09/14-01:09:01        ">
   <rdf:RDF xmlns:rdf="http://www.w3.org/1999/02/22-rdf-syntax-ns#">
      <rdf:Description rdf:about=""/>
   </rdf:RDF>
</x:xmpmeta>
                                                                                                                                                                                
                           
<?xpacket end="w"?></metadata>
<defs>
    <style>
      .cls-1, .cls-2 {
        fill: #333;
      }

      .cls-2 {
        fill-rule: evenodd;
      }
    </style>
  </defs>
  <rect id="table" class="cls-1" x="925" y="1623" width="650" height="150"/>
  <g>
    <circle id="head" class="cls-1" cx="848" cy="1099" r="111"/>
    <rect id="lower_leg" data-name="lower leg" class="cls-1" x="648" y="1698" width="150" height="327"/>
    <rect id="upper_leg" data-name="upper leg" class="cls-1" x="424" y="1624" width="301" height="150"/>
    <rect id="lower_arm" data-name="lower arm" class="cls-1" x="742" y="1374" width="264" height="100"/>
    <ellipse id="foot" class="cls-1" cx="723" cy="2027" rx="75" ry="73"/>
    <ellipse id="knee" class="cls-1" cx="723" cy="1697" rx="75" ry="73"/>
    <ellipse id="butt" class="cls-1" cx="423" cy="1701" rx="75" ry="73"/>
    <ellipse id="shoulder" class="cls-1" cx="648" cy="1221" rx="75" ry="73"/>
    <ellipse id="elbow" class="cls-1" cx="747" cy="1424" rx="48" ry="50"/>
    <ellipse id="hand" class="cls-1" cx="1003" cy="1424" rx="48" ry="50"/>
    <path id="upper_arm" data-name="upper arm" class="cls-2" d="M582.164,1258.11L715.8,1190.82,794.55,1403.3l-89.2,44.92Z"/>
    <path id="back_2" data-name="back 2" class="cls-2" d="M638,1150c53.306-.77,99.633,46.93,77,103-14.6,36.16-54.141,47.21-83,69-36.191,27.32-68.7,69.27-88,113-23.015,52.15-33.3,107.66-44,175-6.144,38.67,7.784,87.29-5,119-12.537,31.09-54.026,61.15-99,43a79.334,79.334,0,0,1-43-43c-15.32-38.08-4.533-156.21,4-195,32.446-147.5,84.1-256.26,186-333,21.091-15.88,44.148-34.37,70-45Z"/>
    <rect id="keyboard" class="cls-1" x="945" y="1524" width="172" height="50"/>
    <path id="screen" class="cls-2" d="M1173.68,1407.38l-54.94,166.44-48.35-15.96,54.94-166.44Z"/>
    <circle id="keyboard_end" data-name="keyboard end" class="cls-1" cx="948" cy="1549" r="25"/>
    <circle id="screen_end" data-name="screen end" class="cls-1" cx="1149" cy="1398" r="25"/>
  </g>
  <g id="Group_1_copy" data-name="Group 1 copy">
    <circle id="head-2" data-name="head" class="cls-1" cx="1649" cy="1099" r="111"/>
    <rect id="lower_leg-2" data-name="lower leg" class="cls-1" x="1699" y="1698" width="150" height="327"/>
    <rect id="upper_leg-2" data-name="upper leg" class="cls-1" x="1772" y="1624" width="301" height="150"/>
    <rect id="lower_arm-2" data-name="lower arm" class="cls-1" x="1491" y="1374" width="264" height="100"/>
    <ellipse id="foot-2" data-name="foot" class="cls-1" cx="1774" cy="2027" rx="75" ry="73"/>
    <ellipse id="knee-2" data-name="knee" class="cls-1" cx="1774" cy="1697" rx="75" ry="73"/>
    <ellipse id="butt-2" data-name="butt" class="cls-1" cx="2074" cy="1701" rx="75" ry="73"/>
    <ellipse id="shoulder-2" data-name="shoulder" class="cls-1" cx="1849" cy="1221" rx="75" ry="73"/>
    <ellipse id="elbow-2" data-name="elbow" class="cls-1" cx="1750" cy="1424" rx="48" ry="50"/>
    <ellipse id="hand-2" data-name="hand" class="cls-1" cx="1494" cy="1424" rx="48" ry="50"/>
    <path id="upper_arm-2" data-name="upper arm" class="cls-2" d="M1914.84,1258.11l-133.64-67.29-78.75,212.48,89.2,44.92Z"/>
    <path class="cls-2" d="M1846,1150c55.56-.45,91.11,37.64,123,63,89.33,71.03,140.18,177.08,169,309,8.96,41.04,22.83,165.43,6,207a79.321,79.321,0,0,1-43,43c-47.49,19.07-90.34-14.14-101-49-9.88-32.29,2.93-76.23-3-113-11.81-73.19-21.07-137.91-52-191-21.43-36.78-46.86-71.95-80-97-28.82-21.79-68.46-32.82-83-69-15.8-39.3,8.09-78.26,33-93Q1830.5,1155.005,1846,1150Z"/>
    <rect id="keyboard-2" data-name="keyboard" class="cls-1" x="1380" y="1524" width="172" height="50"/>
    <path id="screen-2" data-name="screen" class="cls-2" d="M1323.32,1407.38l54.94,166.44,48.35-15.96-54.94-166.44Z"/>
    <circle id="keyboard_end-2" data-name="keyboard end" class="cls-1" cx="1549" cy="1549" r="25"/>
    <circle id="screen_end-2" data-name="screen end" class="cls-1" cx="1348" cy="1398" r="25"/>
  </g>
  <path class="cls-2" d="M1250,0c690.36,0,1250,559.644,1250,1250S1940.36,2500,1250,2500,0,1940.36,0,1250,559.644,0,1250,0Zm0,169c597.02,0,1081,483.98,1081,1081S1847.02,2331,1250,2331,169,1847.02,169,1250,652.98,169,1250,169Z"/>
</svg>
